# xmcd
#
# Track frame offsets:
# 150
# 18692
# 39482
# 60122
# 95220
# 122155
# 153572
# 183745
# 207205
# 234177
# 249237
# 276822
#
# Disc length: 3975 seconds
#
#
# Revision: 13
# Processed by: cddbd v1.5.2PL0 Copyright (c) Steve Scherf et al.
# Submitted via: FreeRIP 2.70 
#
DISCID=a00f850c
DTITLE=Stanley Clarke - East River Drive (12)
DYEAR=1993
DGENRE=Jazz
TTITLE0=Justice's Groove
TTITLE1=Fantasy Love
TTITLE2=Zabadoobeedé? (Yabadoobeeda!)
TTITLE3=East River Drive
TTITLE4=I'm Home Africa
TTITLE5=Theme From Boyz N The Hood
TTITLE6=Christmas In Rio
TTITLE7=What If I Forget The Champagne
TTITLE8=Never Lose Your Heart - There Lies The Passion
TTITLE9=Illegal
TTITLE10=Lords Of The Low Frequencies
TTITLE11=Funk Is Its Own Reward
EXTD=
EXTT0=
EXTT1=
EXTT2=
EXTT3=
EXTT4=
EXTT5=
EXTT6=
EXTT7=
EXTT8=
EXTT9=
EXTT10=
EXTT11=
PLAYORDER=
